<svg width="423" height="220" viewBox="0 0 423 220" fill="none" xmlns="http://www.w3.org/2000/svg">
<path d="M264.483 64.8971L317.778 165.6H211.187L264.483 64.8971Z" fill="#C4C4C4"/>
<path d="M324.904 6.71313L409.209 166.16H240.6L324.904 6.71313Z" fill="#C4C4C4"/>
<path d="M274.553 165.6L208.66 41.3997H340.446L274.553 165.6Z" fill="#C4C4C4"/>
<path d="M242.104 165.6L208.189 101.822H276.02L242.104 165.6Z" fill="#C4C4C4"/>
<path d="M265.217 64.9126L318.513 165.616H211.921L265.217 64.9126Z" fill="black"/>
<path d="M275.308 165.601L209.414 41.4002H341.201L275.308 165.601Z" fill="#6B6B6B" fill-opacity="0.42"/>
<path d="M242.862 165.601L208.946 101.822H276.777L242.862 165.601Z" fill="#175DB8" fill-opacity="0.69"/>
<path d="M325.654 6.71313L409.958 166.16H241.349L325.654 6.71313Z" fill="#C3EAE0" fill-opacity="0.41"/>
<path d="M62.7246 77.306C63.1512 77.946 63.6928 78.4219 64.3492 78.7338C65.0221 79.0291 65.7113 79.1768 66.417 79.1768C66.8109 79.1768 67.2129 79.1194 67.6232 79.0045C68.0335 78.8732 68.4027 78.6845 68.7309 78.4384C69.0756 78.1922 69.3545 77.8886 69.5679 77.5276C69.7812 77.1665 69.8879 76.748 69.8879 76.2721C69.8879 75.5993 69.6746 75.0905 69.2479 74.7459C68.8212 74.3849 68.2878 74.0895 67.6478 73.8597C67.0242 73.6136 66.3349 73.3838 65.58 73.1705C64.8416 72.9407 64.1523 72.6289 63.5123 72.235C62.8887 71.8412 62.3635 71.316 61.9368 70.6596C61.5102 69.9868 61.2968 69.0842 61.2968 67.9518C61.2968 67.4431 61.4035 66.9015 61.6168 66.3271C61.8466 65.7528 62.1994 65.2276 62.6753 64.7517C63.1512 64.2758 63.7584 63.8819 64.4969 63.5701C65.2518 63.2419 66.1544 63.0778 67.2047 63.0778C68.1566 63.0778 69.0674 63.2091 69.9371 63.4716C70.8069 63.7342 71.57 64.2676 72.2264 65.0717L70.3064 66.8195C70.011 66.36 69.5925 65.9907 69.0509 65.7117C68.5094 65.4327 67.894 65.2933 67.2047 65.2933C66.5483 65.2933 65.9985 65.3835 65.5554 65.564C65.1287 65.7281 64.7841 65.9497 64.5215 66.2287C64.259 66.4912 64.0702 66.7784 63.9554 67.0902C63.8569 67.402 63.8077 67.6892 63.8077 67.9518C63.8077 68.6903 64.021 69.2565 64.4477 69.6503C64.8744 70.0442 65.3995 70.3642 66.0231 70.6104C66.6632 70.8565 67.3524 71.0781 68.0909 71.275C68.8458 71.4719 69.5351 71.7509 70.1587 72.112C70.7987 72.4566 71.3321 72.9325 71.7587 73.5397C72.1854 74.1305 72.3988 74.951 72.3988 76.0013C72.3988 76.8383 72.2347 77.5932 71.9064 78.266C71.5946 78.9389 71.1679 79.5051 70.6264 79.9646C70.0848 80.4241 69.4448 80.7769 68.7063 81.0231C67.9678 81.2692 67.1801 81.3923 66.3432 81.3923C65.2272 81.3923 64.1687 81.1954 63.1676 80.8015C62.1666 80.4077 61.3707 79.8005 60.7799 78.9799L62.7246 77.306ZM75.6398 63.5209H78.003V70.7581H87.0372V63.5209H89.4004V80.9492H87.0372V72.9735H78.003V80.9492H75.6398V63.5209ZM93.6396 63.5209H104.889V65.7363H96.0027V70.9304H104.274V73.1459H96.0027V78.7338H105.332V80.9492H93.6396V63.5209ZM108.442 63.5209H111.544L121.144 77.8476H121.193V63.5209H123.556V80.9492H120.553L110.854 66.6225H110.805V80.9492H108.442V63.5209ZM127.788 63.5209H130.151V78.7338H138.151V80.9492H127.788V63.5209ZM140.307 63.5209H151.556V65.7363H142.67V70.9304H150.941V73.1459H142.67V78.7338H151.999V80.9492H140.307V63.5209ZM159.22 73.5151L152.623 63.5209H155.651L160.402 71.1765L165.3 63.5209H168.18L161.583 73.5151V80.9492H159.22V73.5151ZM172.077 69.5765H170.157V63.5209H172.077V69.5765ZM177.058 77.306C177.484 77.946 178.026 78.4219 178.682 78.7338C179.355 79.0291 180.044 79.1768 180.75 79.1768C181.144 79.1768 181.546 79.1194 181.956 79.0045C182.367 78.8732 182.736 78.6845 183.064 78.4384C183.409 78.1922 183.688 77.8886 183.901 77.5276C184.114 77.1665 184.221 76.748 184.221 76.2721C184.221 75.5993 184.008 75.0905 183.581 74.7459C183.154 74.3849 182.621 74.0895 181.981 73.8597C181.357 73.6136 180.668 73.3838 179.913 73.1705C179.175 72.9407 178.485 72.6289 177.845 72.235C177.222 71.8412 176.697 71.316 176.27 70.6596C175.843 69.9868 175.63 69.0842 175.63 67.9518C175.63 67.4431 175.737 66.9015 175.95 66.3271C176.18 65.7528 176.533 65.2276 177.008 64.7517C177.484 64.2758 178.092 63.8819 178.83 63.5701C179.585 63.2419 180.488 63.0778 181.538 63.0778C182.49 63.0778 183.4 63.2091 184.27 63.4716C185.14 63.7342 185.903 64.2676 186.56 65.0717L184.639 66.8195C184.344 66.36 183.926 65.9907 183.384 65.7117C182.842 65.4327 182.227 65.2933 181.538 65.2933C180.881 65.2933 180.332 65.3835 179.889 65.564C179.462 65.7281 179.117 65.9497 178.855 66.2287C178.592 66.4912 178.403 66.7784 178.288 67.0902C178.19 67.402 178.141 67.6892 178.141 67.9518C178.141 68.6903 178.354 69.2565 178.781 69.6503C179.207 70.0442 179.733 70.3642 180.356 70.6104C180.996 70.8565 181.686 71.0781 182.424 71.275C183.179 71.4719 183.868 71.7509 184.492 72.112C185.132 72.4566 185.665 72.9325 186.092 73.5397C186.519 74.1305 186.732 74.951 186.732 76.0013C186.732 76.8383 186.568 77.5932 186.24 78.266C185.928 78.9389 185.501 79.5051 184.959 79.9646C184.418 80.4241 183.778 80.7769 183.039 81.0231C182.301 81.2692 181.513 81.3923 180.676 81.3923C179.56 81.3923 178.502 81.1954 177.501 80.8015C176.5 80.4077 175.704 79.8005 175.113 78.9799L177.058 77.306ZM52.6657 101.287C52.1734 100.647 51.5498 100.155 50.7949 99.8102C50.04 99.4656 49.2605 99.2933 48.4563 99.2933C47.4717 99.2933 46.5773 99.482 45.7732 99.8594C44.9854 100.22 44.3044 100.721 43.73 101.361C43.172 102.001 42.7371 102.756 42.4253 103.626C42.1135 104.479 41.9576 105.398 41.9576 106.383C41.9576 107.302 42.1053 108.172 42.4007 108.992C42.6961 109.813 43.1228 110.535 43.6808 111.158C44.2387 111.782 44.9198 112.274 45.7239 112.635C46.5281 112.996 47.4389 113.177 48.4563 113.177C49.4574 113.177 50.3354 112.972 51.0903 112.561C51.8452 112.151 52.4852 111.577 53.0103 110.838L55.0043 112.34C54.873 112.52 54.6432 112.783 54.315 113.128C53.9868 113.456 53.5519 113.792 53.0103 114.137C52.4688 114.465 51.8123 114.752 51.041 114.998C50.2861 115.261 49.4082 115.392 48.4071 115.392C47.0286 115.392 45.7814 115.13 44.6654 114.605C43.5659 114.079 42.6223 113.39 41.8345 112.537C41.0632 111.683 40.4724 110.723 40.0622 109.657C39.6519 108.574 39.4468 107.482 39.4468 106.383C39.4468 105.037 39.6683 103.798 40.1114 102.666C40.5545 101.517 41.1699 100.532 41.9576 99.7117C42.7618 98.8748 43.7218 98.2265 44.8377 97.767C45.9537 97.3075 47.1845 97.0778 48.5302 97.0778C49.6789 97.0778 50.8031 97.2993 51.9026 97.7424C53.0185 98.1855 53.9294 98.8666 54.635 99.7856L52.6657 101.287ZM57.6161 97.5209H59.9793V104.758H69.0134V97.5209H71.3766V114.949H69.0134V106.974H59.9793V114.949H57.6161V97.5209ZM81.0806 97.5209H83.2222L90.681 114.949H87.924L86.1762 110.641H77.8805L76.1574 114.949H73.4003L81.0806 97.5209ZM85.3146 108.574L82.0653 100.573H82.016L78.7175 108.574H85.3146ZM92.702 97.5209H98.8315C99.9474 97.5209 100.866 97.6768 101.588 97.9886C102.311 98.284 102.877 98.6696 103.287 99.1456C103.714 99.6051 104.009 100.13 104.173 100.721C104.337 101.295 104.419 101.853 104.419 102.395C104.419 102.953 104.321 103.494 104.124 104.02C103.927 104.528 103.64 104.996 103.262 105.423C102.901 105.833 102.45 106.186 101.909 106.481C101.383 106.76 100.793 106.933 100.136 106.998L105.084 114.949H102.13L97.6991 107.269H95.0652V114.949H92.702V97.5209ZM95.0652 105.201H98.1668C98.6263 105.201 99.0776 105.168 99.5207 105.103C99.9802 105.021 100.382 104.881 100.727 104.684C101.088 104.487 101.375 104.208 101.588 103.847C101.802 103.47 101.909 102.986 101.909 102.395C101.909 101.804 101.802 101.328 101.588 100.967C101.375 100.59 101.088 100.303 100.727 100.106C100.382 99.9087 99.9802 99.7774 99.5207 99.7117C99.0776 99.6297 98.6263 99.5886 98.1668 99.5886H95.0652V105.201ZM110.715 99.7363H105.102V97.5209H118.691V99.7363H113.078V114.949H110.715V99.7363ZM120.961 97.5209H132.21V99.7363H123.324V104.93H131.595V107.146H123.324V112.734H132.653V114.949H120.961V97.5209ZM135.763 97.5209H141.893C143.009 97.5209 143.928 97.6768 144.65 97.9886C145.372 98.284 145.938 98.6696 146.348 99.1456C146.775 99.6051 147.07 100.13 147.234 100.721C147.399 101.295 147.481 101.853 147.481 102.395C147.481 102.953 147.382 103.494 147.185 104.02C146.988 104.528 146.701 104.996 146.324 105.423C145.963 105.833 145.511 106.186 144.97 106.481C144.445 106.76 143.854 106.933 143.197 106.998L148.145 114.949H145.191L140.76 107.269H138.126V114.949H135.763V97.5209ZM138.126 105.201H141.228C141.688 105.201 142.139 105.168 142.582 105.103C143.041 105.021 143.444 104.881 143.788 104.684C144.149 104.487 144.436 104.208 144.65 103.847C144.863 103.47 144.97 102.986 144.97 102.395C144.97 101.804 144.863 101.328 144.65 100.967C144.436 100.59 144.149 100.303 143.788 100.106C143.444 99.9087 143.041 99.7774 142.582 99.7117C142.139 99.6297 141.688 99.5886 141.228 99.5886H138.126V105.201ZM150.566 97.5209H161.815V99.7363H152.929V104.93H161.2V107.146H152.929V112.734H162.258V114.949H150.566V97.5209ZM164.974 97.5209H171.055C172.285 97.5209 173.36 97.6604 174.279 97.9394C175.215 98.2183 176.019 98.5958 176.692 99.0717C177.381 99.5312 177.947 100.065 178.39 100.672C178.85 101.279 179.211 101.903 179.473 102.543C179.736 103.183 179.925 103.823 180.039 104.463C180.154 105.103 180.212 105.693 180.212 106.235C180.212 107.351 180.007 108.434 179.596 109.484C179.186 110.518 178.579 111.445 177.775 112.266C176.971 113.07 175.97 113.718 174.772 114.211C173.59 114.703 172.22 114.949 170.661 114.949H164.974V97.5209ZM167.337 112.734H170.316C171.317 112.734 172.261 112.602 173.147 112.34C174.05 112.061 174.837 111.651 175.51 111.109C176.183 110.568 176.716 109.895 177.11 109.091C177.504 108.27 177.701 107.318 177.701 106.235C177.701 105.677 177.611 105.029 177.43 104.29C177.25 103.535 176.905 102.822 176.396 102.149C175.904 101.476 175.215 100.91 174.329 100.45C173.442 99.9743 172.294 99.7363 170.882 99.7363H167.337V112.734ZM12.129 131.521H14.2706L21.7294 148.949H18.9723L17.2246 144.641H8.92889L7.20574 148.949H4.44872L12.129 131.521ZM16.363 142.574L13.1137 134.573H13.0644L9.76584 142.574H16.363ZM35.8862 135.287C35.3939 134.647 34.7703 134.155 34.0154 133.81C33.2605 133.466 32.481 133.293 31.6768 133.293C30.6922 133.293 29.7978 133.482 28.9937 133.859C28.206 134.22 27.5249 134.721 26.9505 135.361C26.3926 136.001 25.9577 136.756 25.6459 137.626C25.334 138.479 25.1781 139.398 25.1781 140.383C25.1781 141.302 25.3258 142.172 25.6212 142.992C25.9166 143.813 26.3433 144.535 26.9013 145.158C27.4593 145.782 28.1403 146.274 28.9444 146.635C29.7486 146.996 30.6594 147.177 31.6768 147.177C32.6779 147.177 33.5559 146.972 34.3108 146.561C35.0657 146.151 35.7057 145.577 36.2309 144.838L38.2248 146.34C38.0935 146.52 37.8637 146.783 37.5355 147.128C37.2073 147.456 36.7724 147.792 36.2309 148.137C35.6893 148.465 35.0329 148.752 34.2616 148.998C33.5067 149.261 32.6287 149.392 31.6276 149.392C30.2491 149.392 29.0019 149.13 27.8859 148.605C26.7864 148.079 25.8428 147.39 25.0551 146.537C24.2838 145.683 23.693 144.723 23.2827 143.657C22.8724 142.574 22.6673 141.482 22.6673 140.383C22.6673 139.037 22.8888 137.798 23.3319 136.666C23.775 135.517 24.3904 134.532 25.1781 133.712C25.9823 132.875 26.9423 132.227 28.0583 131.767C29.1742 131.308 30.405 131.078 31.7507 131.078C32.8995 131.078 34.0236 131.299 35.1231 131.742C36.2391 132.186 37.1499 132.867 37.8555 133.786L35.8862 135.287ZM52.9725 135.287C52.4801 134.647 51.8565 134.155 51.1016 133.81C50.3467 133.466 49.5672 133.293 48.7631 133.293C47.7784 133.293 46.884 133.482 46.0799 133.859C45.2922 134.22 44.6111 134.721 44.0367 135.361C43.4788 136.001 43.0439 136.756 42.7321 137.626C42.4203 138.479 42.2644 139.398 42.2644 140.383C42.2644 141.302 42.4121 142.172 42.7075 142.992C43.0028 143.813 43.4295 144.535 43.9875 145.158C44.5455 145.782 45.2265 146.274 46.0307 146.635C46.8348 146.996 47.7456 147.177 48.7631 147.177C49.7641 147.177 50.6421 146.972 51.397 146.561C52.1519 146.151 52.7919 145.577 53.3171 144.838L55.311 146.34C55.1797 146.52 54.95 146.783 54.6217 147.128C54.2935 147.456 53.8586 147.792 53.3171 148.137C52.7755 148.465 52.1191 148.752 51.3478 148.998C50.5929 149.261 49.7149 149.392 48.7138 149.392C47.3353 149.392 46.0881 149.13 44.9722 148.605C43.8726 148.079 42.929 147.39 42.1413 146.537C41.37 145.683 40.7792 144.723 40.3689 143.657C39.9586 142.574 39.7535 141.482 39.7535 140.383C39.7535 139.037 39.975 137.798 40.4181 136.666C40.8612 135.517 41.4766 134.532 42.2644 133.712C43.0685 132.875 44.0285 132.227 45.1445 131.767C46.2604 131.308 47.4912 131.078 48.8369 131.078C49.9857 131.078 51.1098 131.299 52.2093 131.742C53.3253 132.186 54.2361 132.867 54.9418 133.786L52.9725 135.287ZM65.9231 149.392C64.5938 149.392 63.3712 149.163 62.2553 148.703C61.1394 148.227 60.1793 147.579 59.3752 146.758C58.5875 145.938 57.9639 144.97 57.5043 143.854C57.0613 142.738 56.8397 141.532 56.8397 140.235C56.8397 138.939 57.0613 137.732 57.5043 136.616C57.9639 135.501 58.5875 134.532 59.3752 133.712C60.1793 132.891 61.1394 132.251 62.2553 131.792C63.3712 131.316 64.5938 131.078 65.9231 131.078C67.2524 131.078 68.475 131.316 69.591 131.792C70.7069 132.251 71.6587 132.891 72.4464 133.712C73.2506 134.532 73.8742 135.501 74.3173 136.616C74.7768 137.732 75.0065 138.939 75.0065 140.235C75.0065 141.532 74.7768 142.738 74.3173 143.854C73.8742 144.97 73.2506 145.938 72.4464 146.758C71.6587 147.579 70.7069 148.227 69.591 148.703C68.475 149.163 67.2524 149.392 65.9231 149.392ZM65.9231 147.177C66.9242 147.177 67.8268 146.996 68.6309 146.635C69.4351 146.258 70.1243 145.757 70.6987 145.134C71.2731 144.51 71.7162 143.78 72.028 142.943C72.3398 142.089 72.4957 141.187 72.4957 140.235C72.4957 139.283 72.3398 138.389 72.028 137.552C71.7162 136.699 71.2731 135.96 70.6987 135.336C70.1243 134.713 69.4351 134.22 68.6309 133.859C67.8268 133.482 66.9242 133.293 65.9231 133.293C64.9221 133.293 64.0195 133.482 63.2153 133.859C62.4112 134.22 61.7219 134.713 61.1476 135.336C60.5732 135.96 60.1301 136.699 59.8183 137.552C59.5065 138.389 59.3506 139.283 59.3506 140.235C59.3506 141.187 59.5065 142.089 59.8183 142.943C60.1301 143.78 60.5732 144.51 61.1476 145.134C61.7219 145.757 62.4112 146.258 63.2153 146.635C64.0195 146.996 64.9221 147.177 65.9231 147.177ZM80.2014 131.521V142.204C80.2014 142.746 80.2752 143.312 80.4229 143.903C80.5706 144.477 80.8168 145.011 81.1614 145.503C81.506 145.995 81.9573 146.397 82.5153 146.709C83.0733 147.021 83.7625 147.177 84.5831 147.177C85.4036 147.177 86.0929 147.021 86.6508 146.709C87.2088 146.397 87.6601 145.995 88.0047 145.503C88.3493 145.011 88.5955 144.477 88.7432 143.903C88.8909 143.312 88.9648 142.746 88.9648 142.204V131.521H91.3279V142.574C91.3279 143.591 91.1556 144.518 90.811 145.355C90.4663 146.176 89.9904 146.89 89.3832 147.497C88.776 148.104 88.0622 148.572 87.2416 148.9C86.4211 149.228 85.5349 149.392 84.5831 149.392C83.6312 149.392 82.745 149.228 81.9245 148.9C81.1039 148.572 80.3901 148.104 79.7829 147.497C79.1757 146.89 78.6998 146.176 78.3551 145.355C78.0105 144.518 77.8382 143.591 77.8382 142.574V131.521H80.2014ZM95.2444 131.521H98.3461L107.946 145.848H107.996V131.521H110.359V148.949H107.356L97.6568 134.623H97.6076V148.949H95.2444V131.521ZM118.234 133.736H112.621V131.521H126.209V133.736H120.597V148.949H118.234V133.736ZM131.684 131.521H133.826L141.285 148.949H138.528L136.78 144.641H128.484L126.761 148.949H124.004L131.684 131.521ZM135.918 142.574L132.669 134.573H132.62L129.321 142.574H135.918ZM143.306 131.521H146.407L156.008 145.848H156.057V131.521H158.42V148.949H155.417L145.718 134.623H145.669V148.949H143.306V131.521ZM166.295 133.736H160.682V131.521H174.271V133.736H168.658V148.949H166.295V133.736ZM177.058 145.306C177.484 145.946 178.026 146.422 178.682 146.734C179.355 147.029 180.044 147.177 180.75 147.177C181.144 147.177 181.546 147.119 181.956 147.005C182.367 146.873 182.736 146.685 183.064 146.438C183.409 146.192 183.688 145.889 183.901 145.528C184.114 145.167 184.221 144.748 184.221 144.272C184.221 143.599 184.008 143.091 183.581 142.746C183.154 142.385 182.621 142.089 181.981 141.86C181.357 141.614 180.668 141.384 179.913 141.17C179.175 140.941 178.485 140.629 177.845 140.235C177.222 139.841 176.697 139.316 176.27 138.66C175.843 137.987 175.63 137.084 175.63 135.952C175.63 135.443 175.737 134.902 175.95 134.327C176.18 133.753 176.532 133.228 177.008 132.752C177.484 132.276 178.092 131.882 178.83 131.57C179.585 131.242 180.488 131.078 181.538 131.078C182.49 131.078 183.4 131.209 184.27 131.472C185.14 131.734 185.903 132.268 186.56 133.072L184.639 134.819C184.344 134.36 183.926 133.991 183.384 133.712C182.842 133.433 182.227 133.293 181.538 133.293C180.881 133.293 180.332 133.384 179.889 133.564C179.462 133.728 179.117 133.95 178.855 134.229C178.592 134.491 178.403 134.778 178.288 135.09C178.19 135.402 178.141 135.689 178.141 135.952C178.141 136.69 178.354 137.256 178.781 137.65C179.207 138.044 179.733 138.364 180.356 138.61C180.996 138.857 181.686 139.078 182.424 139.275C183.179 139.472 183.868 139.751 184.492 140.112C185.132 140.457 185.665 140.933 186.092 141.54C186.519 142.131 186.732 142.951 186.732 144.001C186.732 144.838 186.568 145.593 186.24 146.266C185.928 146.939 185.501 147.505 184.959 147.965C184.418 148.424 183.778 148.777 183.039 149.023C182.301 149.269 181.513 149.392 180.676 149.392C179.56 149.392 178.502 149.195 177.501 148.802C176.5 148.408 175.704 147.8 175.113 146.98L177.058 145.306Z" fill="white"/>
</svg>
